<?xml version="1.0" standalone="yes"?>
<svg width="97" height="63">
<path style="fill:#010101; stroke:none;" d="M0 0L1 1L0 0z"/>
<path style="fill:#ffffff; stroke:none;" d="M2 63L6 62C8.3656 53.9969 7 44.3197 7 36L30 36L30 62C33.1089 54.5911 31 43.0245 31 35L4 35C12.566 32.468 23.0912 34 32 34C32 43.2028 30.385 54.1532 33 63L37 63C39.4488 54.7153 38 44.6144 38 36L61 36C61 44.6144 59.5512 54.7153 62 63L69 63C71.0538 54.3736 70 44.8297 70 36L91 36L91 63C94.2096 55.3512 92 43.2878 92 35L67 35C75.0031 32.6344 84.6802 34 93 34L93 63C100.654 60.4596 97 37.12 97 30L67 30C75.8468 27.385 86.7972 29 96 29C88.8314 25.9919 77.7609 28 70 28C70 19.0912 71.532 8.56596 69 0L69 28L67 0C59.5479 2.47333 63 23.1816 63 30L36 30C36 23.1816 39.4521 2.47333 32 0L32 30L4 30C6.61499 21.1532 5 10.2028 5 1C7.53197 9.56597 6 20.0912 6 29L31 29L31 0C28.0324 7.07224 33.8089 20.7258 28.2577 26.3966C24.4742 30.2616 12.08 28 7 28C7 19.0912 8.53197 8.56597 6 0C-1.75329 0.820015 0 7.71672 0 14C0 27.5978 -4.42974 50.9517 2 63z"/>
<path style="fill:#010101; stroke:none;" d="M4 0L5 1L4 0M6 0C8.12506 8.92584 7 18.8623 7 28C12.0591 28 24.2094 30.2476 28.2577 26.9722C32.8777 23.2343 30 5.59575 30 0L6 0M31 0L31 29L6 29L6 1C2.40425 9.56911 6.18245 20.8331 4 30L32 30C32 21.1864 34.4105 8.1277 31 0M35 0C37.2673 9.52349 36 20.2471 36 30L63 30C63 20.2471 61.7327 9.52348 64 0C58.9252 4.43458 62 22.381 62 29L37 29L37 1C39.4488 9.28474 38 19.3856 38 28L61 28L61 0L35 0z"/>
<path style="fill:#ffffff; stroke:none;" d="M61 0L61 28L38 28L38 1C34.7904 8.64879 37 20.7122 37 29L62 29C62 20.4492 64.3101 7.88838 61 0z"/>
<path style="fill:#010101; stroke:none;" d="M67 0L68 28C70.495 22.0542 70.919 5.17287 67 0M69 0C71.1251 8.92583 70 18.8623 70 28L96 28C87.1532 30.615 76.2028 29 67 29C75.1277 32.4105 88.1864 30 97 30L97 0L69 0M4 34C11.4089 37.1089 22.9755 35 31 35L31 62C28.6344 53.9969 30 44.3197 30 36L7 36C7 43.0207 10.0953 58.2494 3 62C11.1277 65.4105 24.1864 63 33 63C30.8038 53.7752 32 43.4454 32 34L4 34M36 34L36 62C39.1089 54.5911 37 43.0245 37 35L62 35L62 62C65.2096 54.3512 63 42.2878 63 34L36 34M67 34C73.9279 36.9071 84.503 35 92 35L92 63C95.3101 55.1116 93 42.5508 93 34L67 34M5 36L5 61C7.41293 55.2497 7.41294 41.7503 5 36M38 36C38 44.8297 39.0538 54.3736 37 63L62 63C59.9462 54.3736 61 44.8297 61 36L38 36M67 36L68 61C70.0414 56.1351 71.1017 39.5843 67 36M70 36L69 63L91 63L91 36L70 36M0 61L0 63L2 63L0 61M67.3333 61.6667L67.6667 62.3333L67.3333 61.6667M35 62L36 63L35 62M63 62L64 63L63 62M96 62L97 63L96 62z"/>
</svg>
